<svg xmlns="http://www.w3.org/2000/svg" viewBox="0 0 512 512">
  <defs>
    <linearGradient id="bg" x1="0%" x2="100%" y1="0%" y2="100%">
      <stop offset="0%" stop-color="#0a1730"/>
      <stop offset="55%" stop-color="#10284a"/>
      <stop offset="100%" stop-color="#08111f"/>
    </linearGradient>
    <radialGradient id="glowA" cx="22%" cy="20%" r="70%">
      <stop offset="0%" stop-color="#58a6ff" stop-opacity="0.95"/>
      <stop offset="100%" stop-color="#58a6ff" stop-opacity="0"/>
    </radialGradient>
    <radialGradient id="glowB" cx="80%" cy="82%" r="60%">
      <stop offset="0%" stop-color="#3fb950" stop-opacity="0.8"/>
      <stop offset="100%" stop-color="#3fb950" stop-opacity="0"/>
    </radialGradient>
    <filter id="softGlow" x="-20%" y="-20%" width="140%" height="140%">
      <feGaussianBlur stdDeviation="6" result="blur"/>
      <feMerge>
        <feMergeNode in="blur"/>
        <feMergeNode in="SourceGraphic"/>
      </feMerge>
    </filter>
  </defs>

  <rect width="512" height="512" rx="120" fill="url(#bg)"/>
  <rect width="512" height="512" rx="120" fill="url(#glowA)"/>
  <rect width="512" height="512" rx="120" fill="url(#glowB)"/>

  <g fill="none" stroke-linecap="round" stroke-linejoin="round">
    <path d="M144 166 L256 118 L372 174 L352 332 L252 392 L142 338 Z" stroke="#a7d0ff" stroke-opacity="0.22" stroke-width="12"/>
    <path d="M160 176 L258 132 L356 178 L340 320 L252 372 L158 328 Z" stroke="#dfeeff" stroke-opacity="0.5" stroke-width="4"/>
  </g>

  <g filter="url(#softGlow)">
    <line x1="172" y1="324" x2="256" y2="256" stroke="#58a6ff" stroke-width="10" stroke-opacity="0.92"/>
    <line x1="256" y1="256" x2="334" y2="300" stroke="#3fb950" stroke-width="10" stroke-opacity="0.92"/>
    <line x1="256" y1="256" x2="248" y2="160" stroke="#d29922" stroke-width="10" stroke-opacity="0.92"/>
    <line x1="248" y1="160" x2="334" y2="300" stroke="#f78166" stroke-width="10" stroke-opacity="0.92"/>

    <circle cx="172" cy="324" r="28" fill="#58a6ff" fill-opacity="0.18" stroke="#58a6ff" stroke-width="8"/>
    <circle cx="256" cy="256" r="34" fill="#eef3fb" fill-opacity="0.2" stroke="#eef3fb" stroke-width="8"/>
    <circle cx="334" cy="300" r="28" fill="#3fb950" fill-opacity="0.18" stroke="#3fb950" stroke-width="8"/>
    <circle cx="248" cy="160" r="24" fill="#d29922" fill-opacity="0.18" stroke="#d29922" stroke-width="8"/>
  </g>

  <text x="256" y="446" fill="#eef3fb" font-family="Manrope, Arial, sans-serif" font-size="42" font-weight="800" letter-spacing="10" text-anchor="middle">OWL</text>
</svg>